<?xml version="1.0" encoding="UTF-8"?>
<svg id="Capa_1" xmlns="http://www.w3.org/2000/svg" viewBox="0 0 377.74 128">
  <defs>
    <style>
      .cls-1 {
        fill: #fff;
      }
    </style>
  </defs>
  <g>
    <path class="cls-1" d="M51.96,57.55c-.08-.03-.1-.13-.03-.19,5.27-4.41,8.71-10.93,9.03-18.26.63-14.5-11.5-26.39-26.01-26.39h-14.18c-5.71,0-10.33,4.63-10.33,10.33v62.2c0,.07.06.12.13.11,1.33-.13,2.68-.17,4.04-.09.05,0,.09-.02.11-.07l2.68-5.8c.02-.05.09-.08.14-.06l10.62,3.44c.06.02.09.08.08.13l-1.23,6.27s.01.09.05.12c2.05,1.31,3.88,2.88,5.46,4.66.03.04.08.05.13.03l6-2.22c.06-.02.12,0,.15.06l5.08,9.94c.03.05.01.12-.04.15l-5.31,3.57s-.06.07-.05.12c.52,2.32.72,4.73.58,7.16,0,.05.02.09.07.11l4.78,2.2s.04.01.07.01c14.93-1.74,26.51-14.42,26.51-29.81,0-12.5-7.65-23.21-18.52-27.73ZM38.72,21.88c4.9-3.73,13.2,2.01,10.85,7.91-3.19-4.59-5.57-5.96-10.85-7.91ZM58.42,77.86c-3.7-5.33-6.45-6.91-12.59-9.17,5.69-4.32,15.31,2.33,12.59,9.17Z"/>
    <path class="cls-1" d="M16.29,101.3c-1.97-.64-3.99-.65-5.85-.16v14.16h12.25c.12-.28.23-.56.32-.85,1.77-5.49-1.23-11.37-6.72-13.15Z"/>
  </g>
  <g>
    <g>
      <path class="cls-1" d="M90.72,77.26c-1.92,0-3.7-1.48-3.7-3.4v-.07c.22-12.65.59-25.15.81-37.8,0-1.78,1.7-3.11,3.4-3.11h8.88c4.44,0,9.25,1.48,12.58,5.03,3.25,3.48,4.29,7.92,4.29,12.06,0,4.44-1.18,8.8-4.36,12.35,1.85.44,7.91,1.63,7.91,6.88,0,4.51-4.59,5.99-6.44,6.58-4.14,1.33-8.36,1.48-12.2,1.48h-11.17ZM112.76,69.12c-3.7-1.26-8.14-1.55-12.87-1.55h-5.62l-.07,3.18h7.4c4.07,0,8.14-.22,11.17-1.63ZM109.88,49.67c0-6.21-3.25-10.28-9.47-10.28h-5.55l-.44,21.67h5.18c2.88,0,5.47-.89,7.32-2.74,2-2.07,2.96-5.18,2.96-8.65Z"/>
      <path class="cls-1" d="M129.55,31.32c2.07,0,3.7,1.7,3.7,3.48l-.59,29.74c-.15,5.55,4.22,7.77,9.76,7.77s10.36-2.59,10.5-8.21l.59-29.66c0-1.7,1.55-3.11,3.4-3.11,2.07,0,3.7,1.7,3.7,3.48l-.59,29.74c-.07,3.92-1.7,7.77-5.03,10.43-3.62,2.96-8.21,3.85-12.28,3.85s-8.73-.81-12.43-3.92c-3.33-2.81-4.81-6.88-4.73-10.8l.59-29.66c0-1.7,1.55-3.11,3.4-3.11Z"/>
      <path class="cls-1" d="M170.09,77.26c-1.92,0-3.7-1.48-3.7-3.4v-.07c.22-12.65.59-25.15.81-37.8,0-1.78,1.7-3.11,3.4-3.11h8.88c4.44,0,9.25,1.48,12.58,5.03,3.25,3.48,4.29,7.92,4.29,12.06,0,4.44-1.18,8.8-4.36,12.35,1.85.44,7.91,1.63,7.91,6.88,0,4.51-4.59,5.99-6.44,6.58-4.14,1.33-8.36,1.48-12.2,1.48h-11.17ZM192.13,69.12c-3.7-1.26-8.14-1.55-12.87-1.55h-5.62l-.07,3.18h7.4c4.07,0,8.14-.22,11.17-1.63ZM189.25,49.67c0-6.21-3.25-10.28-9.47-10.28h-5.55l-.44,21.67h5.18c2.88,0,5.47-.89,7.32-2.74,2-2.07,2.96-5.18,2.96-8.65Z"/>
      <path class="cls-1" d="M208.41,77.26c-1.92,0-3.7-1.48-3.7-3.4v-.07c.22-12.65.59-25.15.81-37.8,0-1.78,1.7-3.11,3.4-3.11h8.88c4.44,0,9.25,1.48,12.57,5.03,3.26,3.48,4.29,7.92,4.29,12.06,0,4.44-1.18,8.8-4.36,12.35,1.85.44,7.91,1.63,7.91,6.88,0,4.51-4.59,5.99-6.44,6.58-4.14,1.33-8.36,1.48-12.2,1.48h-11.17ZM230.45,69.12c-3.7-1.26-8.14-1.55-12.87-1.55h-5.62l-.07,3.18h7.4c4.07,0,8.14-.22,11.17-1.63ZM227.57,49.67c0-6.21-3.25-10.28-9.47-10.28h-5.55l-.44,21.67h5.18c2.88,0,5.47-.89,7.32-2.74,2-2.07,2.96-5.18,2.96-8.65Z"/>
      <path class="cls-1" d="M247.25,32.88c2.07,0,3.7,1.7,3.7,3.48l-.74,34.4h18.71c1.92,0,3.7,1.48,3.7,3.33,0,1.7-1.55,3.18-3.48,3.18h-22.41c-2.07,0-3.7-1.7-3.7-3.48l.81-37.8c0-1.7,1.55-3.11,3.4-3.11Z"/>
      <path class="cls-1" d="M280.9,78.81c-2.07,0-3.7-1.7-3.7-3.48l.89-40.9c0-1.7,1.55-3.11,3.4-3.11,2.07,0,3.7,1.7,3.7,3.48l-.89,40.9c0,1.7-1.55,3.11-3.4,3.11Z"/>
      <path class="cls-1" d="M295.99,78.81c-2.07,0-3.7-1.7-3.7-3.48.3-13.09.52-26.26.81-39.35,0-1.78,1.7-3.11,3.4-3.11h26.18c1.92,0,3.7,1.55,3.7,3.4,0,1.7-1.55,3.11-3.48,3.11h-22.78l-.44,21.67h17.97c1.92,0,3.7,1.55,3.7,3.4,0,1.7-1.48,3.11-3.4,3.11h-18.42l-.15,8.14c0,1.7-1.55,3.11-3.4,3.11Z"/>
      <path class="cls-1" d="M334.83,31.32c2.07,0,3.7,1.7,3.7,3.48l-.22,11.32v.67c0,7.4,2.96,14.28,10.28,14.28,2.96,0,5.92-1.26,7.84-3.7,2.44-3.03,3.4-7.17,3.48-11.61l.3-11.32c0-1.7,1.55-3.11,3.4-3.11,2.07,0,3.7,1.7,3.7,3.48l-.3,11.32c-.07,5.1-1.18,10.73-4.81,15.24-2.51,3.11-5.99,5.18-9.91,5.92l-.22,8.43c0,1.7-1.55,3.11-3.4,3.11-2.07,0-3.7-1.7-3.7-3.48l.15-8.14c-3.77-.81-7.25-2.96-9.62-6.06-3.33-4.44-4.29-9.69-4.29-14.57v-.81l.22-11.32c0-1.7,1.55-3.11,3.4-3.11Z"/>
    </g>
    <g>
      <path class="cls-1" d="M87.5,105.02c.82.51,2.02.92,3.28.92,1.88,0,2.98-.98,2.98-2.42,0-1.32-.77-2.1-2.69-2.82-2.32-.82-3.76-2.05-3.76-4.04,0-2.22,1.84-3.86,4.61-3.86,1.44,0,2.52.34,3.14.69l-.51,1.51c-.45-.27-1.41-.68-2.69-.68-1.96,0-2.69,1.16-2.69,2.13,0,1.32.86,1.97,2.83,2.73,2.41.95,3.63,2.11,3.63,4.19s-1.61,4.1-4.98,4.1c-1.38,0-2.88-.41-3.64-.93l.48-1.53Z"/>
      <path class="cls-1" d="M110.32,100c0,4.88-2.98,7.49-6.6,7.49s-6.4-2.92-6.4-7.22,2.79-7.47,6.59-7.47,6.41,2.98,6.41,7.21ZM99.26,100.23c0,3.05,1.65,5.77,4.55,5.77s4.56-2.68,4.56-5.91c0-2.83-1.48-5.79-4.54-5.79s-4.58,2.82-4.58,5.94Z"/>
      <path class="cls-1" d="M112.7,93.03h7.67v1.53h-5.82v4.74h5.37v1.52h-5.37v6.44h-1.85v-14.23Z"/>
      <path class="cls-1" d="M125.7,94.58h-4.34v-1.55h10.54v1.55h-4.35v12.68h-1.85v-12.68Z"/>
      <path class="cls-1" d="M136.64,107.26l-3.61-14.23h1.95l1.69,7.2c.41,1.78.79,3.54,1.04,4.92h.05c.23-1.41.68-3.11,1.16-4.94l1.91-7.18h1.9l1.74,7.21c.4,1.7.78,3.38,1,4.88h.05c.28-1.56.68-3.14,1.12-4.92l1.88-7.18h1.89l-4.04,14.23h-1.92l-1.79-7.4c-.45-1.83-.75-3.22-.94-4.65h-.04c-.24,1.43-.57,2.81-1.1,4.65l-2.01,7.41h-1.94Z"/>
      <path class="cls-1" d="M153.29,102.79l-1.47,4.47h-1.91l4.84-14.23h2.21l4.86,14.23h-1.97l-1.52-4.47h-5.04ZM157.96,101.35l-1.41-4.1c-.31-.93-.52-1.78-.73-2.6h-.05c-.2.83-.43,1.7-.71,2.57l-1.4,4.12h4.3Z"/>
      <path class="cls-1" d="M163.9,93.22c.93-.19,2.27-.31,3.54-.31,1.95,0,3.24.37,4.12,1.17.7.62,1.12,1.59,1.12,2.71,0,1.87-1.19,3.11-2.68,3.63v.05c1.09.38,1.74,1.41,2.09,2.88.47,1.99.81,3.35,1.09,3.91h-1.91c-.22-.41-.55-1.62-.94-3.41-.42-1.95-1.19-2.7-2.86-2.76h-1.74v6.17h-1.84v-14.04ZM165.74,99.7h1.88c1.97,0,3.21-1.07,3.21-2.7,0-1.85-1.33-2.65-3.27-2.65-.89,0-1.51.08-1.82.16v5.2Z"/>
      <path class="cls-1" d="M182.62,100.59h-5.52v5.14h6.17v1.53h-8.02v-14.23h7.69v1.53h-5.85v4.51h5.52v1.52Z"/>
      <path class="cls-1" d="M190.12,93.22c1.13-.18,2.46-.31,3.91-.31,2.63,0,4.52.62,5.77,1.79,1.27,1.15,2.02,2.8,2.02,5.09s-.73,4.22-2.05,5.54c-1.34,1.32-3.54,2.05-6.3,2.05-1.32,0-2.41-.05-3.34-.16v-14ZM191.97,105.81c.47.08,1.15.09,1.85.09,3.94,0,6.06-2.19,6.06-6.03.02-3.36-1.88-5.48-5.75-5.48-.95,0-1.66.09-2.15.19v11.24Z"/>
      <path class="cls-1" d="M211.55,100.59h-5.52v5.14h6.17v1.53h-8.02v-14.23h7.69v1.53h-5.84v4.51h5.52v1.52Z"/>
      <path class="cls-1" d="M229.89,106.62c-.82.31-2.46.78-4.38.78-2.16,0-3.94-.55-5.32-1.88-1.23-1.18-1.98-3.07-1.98-5.28,0-4.24,2.92-7.35,7.69-7.35,1.64,0,2.95.36,3.56.65l-.46,1.5c-.76-.35-1.71-.61-3.14-.61-3.45,0-5.72,2.15-5.72,5.71s2.16,5.74,5.49,5.74c1.2,0,2.02-.17,2.44-.38v-4.24h-2.88v-1.47h4.69v6.83Z"/>
      <path class="cls-1" d="M240.05,100.59h-5.52v5.14h6.17v1.53h-8.02v-14.23h7.69v1.53h-5.85v4.51h5.52v1.52Z"/>
      <path class="cls-1" d="M242.84,105.02c.82.51,2.02.92,3.28.92,1.88,0,2.98-.98,2.98-2.42,0-1.32-.77-2.1-2.69-2.82-2.32-.82-3.76-2.05-3.76-4.04,0-2.22,1.84-3.86,4.61-3.86,1.44,0,2.52.34,3.14.69l-.51,1.51c-.45-.27-1.41-.68-2.69-.68-1.96,0-2.69,1.16-2.69,2.13,0,1.32.87,1.97,2.83,2.73,2.41.95,3.63,2.11,3.63,4.19s-1.61,4.1-4.98,4.1c-1.38,0-2.88-.41-3.64-.93l.48-1.53Z"/>
      <path class="cls-1" d="M256.2,94.58h-4.33v-1.55h10.54v1.55h-4.36v12.68h-1.85v-12.68Z"/>
      <path class="cls-1" d="M265.82,93.03v14.23h-1.85v-14.23h1.85Z"/>
      <path class="cls-1" d="M281.19,100c0,4.88-2.98,7.49-6.6,7.49s-6.4-2.92-6.4-7.22,2.79-7.47,6.59-7.47,6.41,2.98,6.41,7.21ZM270.14,100.23c0,3.05,1.65,5.77,4.55,5.77s4.56-2.68,4.56-5.91c0-2.83-1.48-5.79-4.54-5.79s-4.58,2.82-4.58,5.94ZM277.77,89.75l-2.69,2.46h-1.51l1.95-2.46h2.25Z"/>
      <path class="cls-1" d="M283.57,107.26v-14.23h2.02l4.56,7.19c1.04,1.67,1.87,3.17,2.54,4.63l.05-.02c-.17-1.9-.2-3.63-.2-5.84v-5.96h1.73v14.23h-1.87l-4.52-7.21c-.98-1.59-1.94-3.22-2.65-4.76l-.06.02c.11,1.8.14,3.52.14,5.87v6.09h-1.73Z"/>
      <path class="cls-1" d="M314.11,100c0,4.88-2.98,7.49-6.6,7.49s-6.4-2.92-6.4-7.22,2.79-7.47,6.59-7.47,6.41,2.98,6.41,7.21ZM303.05,100.23c0,3.05,1.65,5.77,4.55,5.77s4.56-2.68,4.56-5.91c0-2.83-1.48-5.79-4.54-5.79s-4.58,2.82-4.58,5.94Z"/>
      <path class="cls-1" d="M316.49,107.26v-14.23h2.02l4.56,7.19c1.04,1.67,1.87,3.17,2.54,4.63l.05-.02c-.17-1.9-.2-3.63-.2-5.84v-5.96h1.73v14.23h-1.87l-4.52-7.21c-.98-1.59-1.94-3.22-2.65-4.76l-.06.02c.11,1.8.14,3.52.14,5.87v6.09h-1.73Z"/>
      <path class="cls-1" d="M330.38,93.03h1.85v12.68h6.08v1.55h-7.93v-14.23Z"/>
      <path class="cls-1" d="M342.19,93.03v14.23h-1.85v-14.23h1.85Z"/>
      <path class="cls-1" d="M345.39,107.26v-14.23h2.02l4.56,7.19c1.04,1.67,1.87,3.17,2.54,4.63l.05-.02c-.17-1.9-.2-3.63-.2-5.84v-5.96h1.73v14.23h-1.87l-4.52-7.21c-.98-1.59-1.94-3.22-2.65-4.76l-.06.02c.11,1.8.14,3.52.14,5.87v6.09h-1.73Z"/>
      <path class="cls-1" d="M366.65,100.59h-5.52v5.14h6.17v1.53h-8.02v-14.23h7.69v1.53h-5.85v4.51h5.52v1.52Z"/>
    </g>
  </g>
</svg>