<?xml version="1.0" encoding="UTF-8"?>
<svg id="Capa_1" xmlns="http://www.w3.org/2000/svg" viewBox="0 0 276.12 128">
  <defs>
    <style>
      .cls-1 {
        fill: #1952a0;
      }

      .cls-2 {
        fill: #424242;
      }
    </style>
  </defs>
  <g>
    <path class="cls-1" d="M56.02,57.55c-.08-.03-.1-.13-.03-.19,5.27-4.41,8.71-10.93,9.03-18.26.63-14.5-11.5-26.39-26.01-26.39h-14.18c-5.71,0-10.33,4.63-10.33,10.33v62.2c0,.07.06.12.13.11,1.33-.13,2.68-.17,4.04-.09.05,0,.09-.02.11-.07l2.68-5.8c.02-.05.09-.08.14-.06l10.62,3.44c.06.02.09.08.08.13l-1.23,6.27s.01.09.05.12c2.05,1.31,3.88,2.88,5.46,4.66.03.04.08.05.13.03l6-2.22c.06-.02.12,0,.15.06l5.08,9.94c.03.05.01.12-.04.15l-5.31,3.57s-.06.07-.05.12c.52,2.32.72,4.73.58,7.16,0,.05.02.09.07.11l4.78,2.2s.04.01.07.01c14.93-1.74,26.51-14.42,26.51-29.81,0-12.5-7.65-23.21-18.52-27.73ZM42.78,21.88c4.9-3.73,13.2,2.01,10.85,7.91-3.19-4.59-5.57-5.96-10.85-7.91ZM62.48,77.86c-3.7-5.33-6.45-6.91-12.59-9.17,5.69-4.32,15.31,2.33,12.59,9.17Z"/>
    <path class="cls-1" d="M20.35,101.3c-1.97-.64-3.99-.65-5.85-.16v14.16h12.25c.12-.28.23-.56.32-.85,1.77-5.49-1.23-11.37-6.72-13.15Z"/>
  </g>
  <g>
    <g>
      <path class="cls-2" d="M87.88,68.93c-1.21,0-2.32-.93-2.32-2.14v-.05c.14-7.95.37-15.8.51-23.74,0-1.12,1.07-1.95,2.14-1.95h5.58c2.79,0,5.81.93,7.9,3.16,2.04,2.18,2.69,4.97,2.69,7.57,0,2.79-.74,5.53-2.74,7.76,1.16.28,4.97,1.02,4.97,4.32,0,2.83-2.88,3.76-4.04,4.13-2.6.84-5.25.93-7.67.93h-7.02ZM101.73,63.82c-2.32-.79-5.11-.98-8.08-.98h-3.53l-.05,2h4.65c2.56,0,5.11-.14,7.02-1.02ZM99.92,51.6c0-3.9-2.04-6.46-5.95-6.46h-3.48l-.28,13.61h3.25c1.81,0,3.44-.56,4.6-1.72,1.25-1.3,1.86-3.25,1.86-5.44Z"/>
      <path class="cls-2" d="M112.28,40.08c1.3,0,2.32,1.07,2.32,2.18l-.37,18.68c-.09,3.48,2.65,4.88,6.13,4.88s6.5-1.63,6.6-5.16l.37-18.63c0-1.07.98-1.95,2.14-1.95,1.3,0,2.32,1.07,2.32,2.18l-.37,18.68c-.05,2.46-1.07,4.88-3.16,6.55-2.28,1.86-5.16,2.42-7.71,2.42s-5.48-.51-7.81-2.46c-2.09-1.77-3.02-4.32-2.97-6.78l.37-18.63c0-1.07.98-1.95,2.14-1.95Z"/>
      <path class="cls-2" d="M137.74,68.93c-1.21,0-2.32-.93-2.32-2.14v-.05c.14-7.95.37-15.8.51-23.74,0-1.12,1.07-1.95,2.14-1.95h5.58c2.79,0,5.81.93,7.9,3.16,2.04,2.18,2.69,4.97,2.69,7.57,0,2.79-.74,5.53-2.74,7.76,1.16.28,4.97,1.02,4.97,4.32,0,2.83-2.88,3.76-4.04,4.13-2.6.84-5.25.93-7.67.93h-7.02ZM151.59,63.82c-2.32-.79-5.11-.98-8.08-.98h-3.53l-.05,2h4.65c2.56,0,5.11-.14,7.02-1.02ZM149.78,51.6c0-3.9-2.04-6.46-5.95-6.46h-3.48l-.28,13.61h3.25c1.81,0,3.44-.56,4.6-1.72,1.25-1.3,1.86-3.25,1.86-5.44Z"/>
      <path class="cls-2" d="M161.81,68.93c-1.21,0-2.32-.93-2.32-2.14v-.05c.14-7.95.37-15.8.51-23.74,0-1.12,1.07-1.95,2.14-1.95h5.58c2.79,0,5.81.93,7.9,3.16,2.04,2.18,2.7,4.97,2.7,7.57,0,2.79-.74,5.53-2.74,7.76,1.16.28,4.97,1.02,4.97,4.32,0,2.83-2.88,3.76-4.04,4.13-2.6.84-5.25.93-7.67.93h-7.02ZM175.66,63.82c-2.32-.79-5.11-.98-8.08-.98h-3.53l-.05,2h4.65c2.56,0,5.11-.14,7.02-1.02ZM173.85,51.6c0-3.9-2.04-6.46-5.95-6.46h-3.48l-.28,13.61h3.25c1.81,0,3.44-.56,4.6-1.72,1.25-1.3,1.86-3.25,1.86-5.44Z"/>
      <path class="cls-2" d="M186.21,41.05c1.3,0,2.32,1.07,2.32,2.18l-.46,21.61h11.76c1.21,0,2.32.93,2.32,2.09,0,1.07-.98,2-2.18,2h-14.08c-1.3,0-2.32-1.07-2.32-2.18l.51-23.74c0-1.07.98-1.95,2.14-1.95Z"/>
      <path class="cls-2" d="M207.35,69.91c-1.3,0-2.32-1.07-2.32-2.18l.56-25.69c0-1.07.98-1.95,2.14-1.95,1.3,0,2.32,1.07,2.32,2.18l-.56,25.69c0,1.07-.98,1.95-2.14,1.95Z"/>
      <path class="cls-2" d="M216.83,69.91c-1.3,0-2.32-1.07-2.32-2.18.19-8.22.33-16.49.51-24.72,0-1.12,1.07-1.95,2.14-1.95h16.45c1.21,0,2.32.98,2.32,2.14,0,1.07-.98,1.95-2.18,1.95h-14.31l-.28,13.61h11.29c1.21,0,2.32.98,2.32,2.14,0,1.07-.93,1.95-2.14,1.95h-11.57l-.09,5.11c0,1.07-.98,1.95-2.14,1.95Z"/>
      <path class="cls-2" d="M241.22,40.08c1.3,0,2.32,1.07,2.32,2.18l-.14,7.11v.42c0,4.65,1.86,8.97,6.46,8.97,1.86,0,3.72-.79,4.92-2.32,1.53-1.91,2.14-4.51,2.18-7.29l.19-7.11c0-1.07.98-1.95,2.14-1.95,1.3,0,2.32,1.07,2.32,2.18l-.19,7.11c-.05,3.21-.74,6.74-3.02,9.57-1.58,1.95-3.76,3.25-6.23,3.72l-.14,5.3c0,1.07-.98,1.95-2.14,1.95-1.3,0-2.32-1.07-2.32-2.18l.09-5.11c-2.37-.51-4.55-1.86-6.04-3.81-2.09-2.79-2.69-6.09-2.69-9.15v-.51l.14-7.11c0-1.07.98-1.95,2.14-1.95Z"/>
    </g>
    <g>
      <path class="cls-2" d="M85.86,86.37c.52.32,1.27.58,2.06.58,1.18,0,1.87-.62,1.87-1.52,0-.83-.49-1.32-1.69-1.77-1.46-.52-2.36-1.28-2.36-2.54,0-1.39,1.16-2.42,2.9-2.42.91,0,1.58.21,1.97.43l-.32.95c-.28-.17-.88-.42-1.69-.42-1.23,0-1.69.73-1.69,1.34,0,.83.54,1.24,1.78,1.72,1.52.6,2.28,1.32,2.28,2.63s-1.01,2.58-3.13,2.58c-.86,0-1.81-.26-2.28-.58l.3-.96Z"/>
      <path class="cls-2" d="M100.2,83.22c0,3.07-1.87,4.7-4.15,4.7s-4.02-1.84-4.02-4.54,1.75-4.69,4.14-4.69,4.03,1.87,4.03,4.53ZM93.25,83.36c0,1.91,1.04,3.62,2.86,3.62s2.86-1.68,2.86-3.72c0-1.78-.93-3.64-2.85-3.64s-2.87,1.77-2.87,3.73Z"/>
      <path class="cls-2" d="M101.69,78.84h4.81v.96h-3.65v2.98h3.38v.96h-3.38v4.05h-1.16v-8.94Z"/>
      <path class="cls-2" d="M109.85,79.81h-2.72v-.98h6.62v.98h-2.74v7.96h-1.16v-7.96Z"/>
      <path class="cls-2" d="M116.73,87.78l-2.27-8.94h1.22l1.06,4.52c.26,1.12.5,2.22.66,3.09h.03c.15-.89.43-1.95.73-3.1l1.2-4.51h1.2l1.09,4.53c.25,1.07.49,2.12.63,3.07h.03c.18-.98.43-1.98.71-3.09l1.18-4.51h1.19l-2.54,8.94h-1.21l-1.12-4.65c-.28-1.15-.47-2.02-.59-2.92h-.03c-.15.9-.36,1.77-.69,2.92l-1.26,4.65h-1.22Z"/>
      <path class="cls-2" d="M127.19,84.97l-.92,2.81h-1.2l3.04-8.94h1.39l3.05,8.94h-1.23l-.96-2.81h-3.17ZM130.12,84.07l-.89-2.57c-.19-.58-.33-1.12-.46-1.63h-.03c-.13.52-.27,1.07-.44,1.62l-.88,2.59h2.7Z"/>
      <path class="cls-2" d="M133.85,78.96c.59-.12,1.43-.19,2.22-.19,1.23,0,2.03.23,2.59.74.44.39.7,1,.7,1.7,0,1.17-.75,1.96-1.69,2.28v.03c.68.24,1.09.88,1.31,1.81.29,1.25.51,2.1.69,2.45h-1.2c-.14-.26-.34-1.02-.59-2.14-.26-1.22-.75-1.7-1.79-1.73h-1.09v3.87h-1.15v-8.82ZM135.01,83.03h1.18c1.24,0,2.02-.67,2.02-1.7,0-1.16-.84-1.67-2.06-1.67-.56,0-.95.05-1.14.1v3.26Z"/>
      <path class="cls-2" d="M145.61,83.59h-3.47v3.23h3.88v.96h-5.04v-8.94h4.83v.96h-3.67v2.83h3.47v.96Z"/>
      <path class="cls-2" d="M150.32,78.96c.71-.12,1.55-.19,2.46-.19,1.65,0,2.84.39,3.62,1.12.8.72,1.27,1.76,1.27,3.2s-.46,2.65-1.29,3.48c-.84.83-2.23,1.29-3.96,1.29-.83,0-1.51-.03-2.1-.1v-8.8ZM151.48,86.87c.29.05.72.05,1.16.05,2.48,0,3.81-1.37,3.81-3.79.01-2.11-1.18-3.44-3.61-3.44-.6,0-1.05.06-1.35.12v7.06Z"/>
      <path class="cls-2" d="M163.78,83.59h-3.47v3.23h3.88v.96h-5.04v-8.94h4.83v.96h-3.67v2.83h3.47v.96Z"/>
      <path class="cls-2" d="M175.31,87.38c-.52.2-1.54.49-2.75.49-1.36,0-2.47-.34-3.34-1.18-.77-.74-1.25-1.93-1.24-3.32,0-2.67,1.84-4.62,4.83-4.62,1.03,0,1.85.23,2.24.41l-.29.94c-.48-.22-1.07-.38-1.98-.38-2.17,0-3.59,1.35-3.59,3.59s1.36,3.61,3.45,3.61c.76,0,1.27-.11,1.53-.24v-2.66h-1.81v-.92h2.94v4.29Z"/>
      <path class="cls-2" d="M181.69,83.59h-3.47v3.23h3.88v.96h-5.04v-8.94h4.83v.96h-3.67v2.83h3.47v.96Z"/>
      <path class="cls-2" d="M183.44,86.37c.52.32,1.27.58,2.06.58,1.18,0,1.87-.62,1.87-1.52,0-.83-.48-1.32-1.69-1.77-1.46-.52-2.36-1.28-2.36-2.54,0-1.39,1.16-2.42,2.9-2.42.91,0,1.58.21,1.97.43l-.32.95c-.28-.17-.88-.42-1.69-.42-1.23,0-1.69.73-1.69,1.34,0,.83.54,1.24,1.78,1.72,1.52.6,2.28,1.32,2.28,2.63s-1.01,2.58-3.13,2.58c-.86,0-1.81-.26-2.28-.58l.3-.96Z"/>
      <path class="cls-2" d="M191.83,79.81h-2.72v-.98h6.62v.98h-2.74v7.96h-1.16v-7.96Z"/>
      <path class="cls-2" d="M197.88,78.84v8.94h-1.16v-8.94h1.16Z"/>
      <path class="cls-2" d="M207.53,83.22c0,3.07-1.87,4.7-4.15,4.7s-4.02-1.84-4.02-4.54,1.75-4.69,4.14-4.69,4.03,1.87,4.03,4.53ZM200.59,83.36c0,1.91,1.04,3.62,2.86,3.62s2.86-1.68,2.86-3.72c0-1.78-.93-3.64-2.85-3.64s-2.87,1.77-2.87,3.73ZM205.38,76.78l-1.69,1.55h-.95l1.23-1.55h1.41Z"/>
      <path class="cls-2" d="M209.02,87.78v-8.94h1.27l2.86,4.52c.65,1.05,1.17,1.99,1.6,2.91h.03c-.1-1.21-.13-2.3-.13-3.68v-3.75h1.09v8.94h-1.17l-2.84-4.53c-.62-1-1.22-2.02-1.66-2.99h-.04c.07,1.15.08,2.22.08,3.7v3.82h-1.09Z"/>
      <path class="cls-2" d="M228.21,83.22c0,3.07-1.87,4.7-4.15,4.7s-4.02-1.84-4.02-4.54,1.75-4.69,4.14-4.69,4.03,1.87,4.03,4.53ZM221.26,83.36c0,1.91,1.04,3.62,2.86,3.62s2.86-1.68,2.86-3.72c0-1.78-.93-3.64-2.85-3.64s-2.87,1.77-2.87,3.73Z"/>
      <path class="cls-2" d="M229.7,87.78v-8.94h1.27l2.86,4.52c.65,1.05,1.17,1.99,1.6,2.91h.03c-.1-1.21-.13-2.3-.13-3.68v-3.75h1.09v8.94h-1.17l-2.84-4.53c-.62-1-1.22-2.02-1.66-2.99h-.04c.07,1.15.08,2.22.08,3.7v3.82h-1.09Z"/>
      <path class="cls-2" d="M238.43,78.84h1.16v7.97h3.82v.97h-4.98v-8.94Z"/>
      <path class="cls-2" d="M245.85,78.84v8.94h-1.16v-8.94h1.16Z"/>
      <path class="cls-2" d="M247.86,87.78v-8.94h1.27l2.86,4.52c.65,1.05,1.17,1.99,1.6,2.91h.03c-.1-1.21-.13-2.3-.13-3.68v-3.75h1.09v8.94h-1.17l-2.84-4.53c-.62-1-1.22-2.02-1.66-2.99h-.04c.07,1.15.08,2.22.08,3.7v3.82h-1.09Z"/>
      <path class="cls-2" d="M261.21,83.59h-3.47v3.23h3.88v.96h-5.04v-8.94h4.83v.96h-3.67v2.83h3.47v.96Z"/>
    </g>
  </g>
</svg>