<?xml version="1.0" encoding="UTF-8"?>
<svg id="Capa_1" xmlns="http://www.w3.org/2000/svg" viewBox="0 0 128 128">
  <defs>
    <style>
      .cls-1 {
        fill: #1952a0;
      }

      .cls-2 {
        fill: #fff;
      }
    </style>
  </defs>
  <rect class="cls-2" x="6.34" y="6.34" width="115.31" height="115.31" rx="13.65" ry="13.65"/>
  <g>
    <path class="cls-1" d="M74.72,57.99c-.07-.03-.09-.13-.03-.18,4.91-4.11,8.11-10.19,8.41-17.02.59-13.51-10.71-24.58-24.23-24.58h-13.21c-5.32,0-9.62,4.31-9.62,9.62v57.95c0,.06.05.11.12.11,1.24-.12,2.5-.16,3.76-.09.04,0,.08-.02.1-.06l2.49-5.41c.02-.05.08-.08.13-.06l9.9,3.2c.05.02.08.07.07.13l-1.15,5.84s.01.09.05.11c1.91,1.22,3.62,2.69,5.09,4.34.03.03.08.04.12.03l5.59-2.06c.05-.02.11,0,.14.05l4.73,9.26s0,.11-.04.14l-4.95,3.32s-.05.07-.04.11c.48,2.16.67,4.4.54,6.67,0,.04.02.09.06.1l4.46,2.05s.04.01.06,0c13.91-1.62,24.7-13.43,24.7-27.77,0-11.65-7.12-21.63-17.25-25.83ZM62.38,24.76c4.57-3.47,12.3,1.87,10.11,7.37-2.97-4.28-5.19-5.55-10.11-7.37ZM80.73,76.92c-3.45-4.96-6.01-6.44-11.73-8.54,5.3-4.03,14.26,2.17,11.73,8.54Z"/>
    <path class="cls-1" d="M41.48,98.75c-1.83-.59-3.72-.6-5.45-.15v13.19h11.41c.11-.26.21-.52.3-.79,1.65-5.11-1.15-10.6-6.26-12.25Z"/>
  </g>
</svg>